<?xml version="1.0" encoding="utf-8"?>
<!-- Generator: Adobe Illustrator 15.0.0, SVG Export Plug-In . SVG Version: 6.00 Build 0)  -->
<!DOCTYPE svg PUBLIC "-//W3C//DTD SVG 1.1//EN" "http://www.w3.org/Graphics/SVG/1.1/DTD/svg11.dtd">
<svg version="1.1" id="Layer_1" xmlns="http://www.w3.org/2000/svg" xmlns:xlink="http://www.w3.org/1999/xlink" x="0px" y="0px"
	 width="827.949px" height="442.69px" viewBox="0 0 827.949 442.69" enable-background="new 0 0 827.949 442.69"
	 xml:space="preserve">
<path d="M645.64,386.78 M826.493,173.696c-0.597,2.92-2.7,15.71-5.521,33.261l3.685,5.609v215.498c0,0-14.714,10.405-41.181,13.163
	c-19.301,2.012-42.604-0.043-65.481-13.163v-22.205l1.33-0.137l-53.583-0.671l-509.052,3.59l-0.061,0.133l-45.22-1.614v21.703
	c-22.877,13.121-46.18,15.176-65.481,13.164c-26.467-2.758-45.409-13.164-45.409-13.164V213.366l5.185-6.284l1.616,10.621
	l-1.736-13.691l-4.787-30.315c35.784-14.91,59.019-28.367,74.028-39.146L62.884,124.19H14.22c0,0-35.9-22.975,6.382-36.538
	c0,0,75.21-35.422,48.665,23.933l18.198,12.933c11.449-10.19,13.852-16.24,13.852-16.24l46.803-57.971
	c28.72-28.72,48.931-33.773,48.931-33.773c75.789-24.731,365.38-17.816,420.161-4.521c2.034,0.494,4.016,1.025,5.944,1.59
	c49.999,14.652,64.791,52.126,64.791,52.126c22.281,32.53,38.306,50.727,49.407,60.896l21.329-15.158
	c-26.546-59.356,48.664-23.933,48.664-23.933c42.281,13.562,6.383,36.537,6.383,36.537h-48.665l-14.526,12.602
	c5.731,3.254,8.145,2.716,8.145,2.716C768.255,148.167,826.493,173.696,826.493,173.696z M737.357,126.63
	c5.574,5.104,9.9,8.179,13.16,10.033L737.357,126.63z M108.497,126.627h605.51c0,0-36.209-105.557-112.989-101.295l-371.851-4.821
	C229.167,20.511,163.942,10.497,108.497,126.627z M127.643,166.227l-19.146-35.611H89.084
	C89.084,130.616,87.755,146.392,127.643,166.227z M129.959,312.621c0-5.288-4.287-9.573-9.573-9.573h-45.47
	c-5.287,0-9.573,4.285-9.573,9.573v38.291c0,5.287,4.286,9.573,9.573,9.573h45.47c5.287,0,9.573-4.286,9.573-9.573V312.621z
	 M142.27,204.386l-69.274-36.674c-46.271-9.973-38.293,33.507-38.293,33.507c-20.343,49.062,61.296,57.041,61.296,57.041
	c57.439,18.082,56.908-7.445,56.908-7.445C182.69,218.372,142.27,204.386,142.27,204.386z M194.604,276.347l-8.637-0.021
	c2.473,5.78,5.39,10.802,8.589,15.167h0.048V276.347z M194.604,251.686l-10.982-0.026c-0.943,5.835-0.674,11.326-0.226,15.146
	l11.208,0.026V251.686z M194.604,231.042c-3.836,3.216-6.464,7.07-8.238,11.109l8.238,0.02V231.042z M217.513,301.063l-13.393-0.032
	v1.049c4.364,3.923,8.924,7.012,13.393,9.44V301.063z M217.513,276.402l-13.393-0.032v15.146l13.393,0.033V276.402z
	 M217.513,251.741l-13.393-0.031v15.145l13.393,0.033V251.741z M217.513,223.727l-7.167-0.038c-2.25,0.497-4.32,1.118-6.225,1.848
	v16.657l13.393,0.033V223.727z M240.421,301.119l-13.393-0.033v14.77c5.092,1.906,9.729,3.027,13.393,3.688V301.119z
	 M240.421,276.458l-13.393-0.033v15.146l13.393,0.033V276.458z M240.421,251.797l-13.393-0.032v15.146l13.393,0.033V251.797z
	 M240.421,223.849l-13.393-0.071v18.472l13.393,0.033V223.849z M260.158,301.167l-10.221-0.024v19.343h10.221V301.167z
	 M260.158,276.506l-10.221-0.024v15.146l10.221,0.025V276.506z M260.158,251.845l-10.221-0.024v15.146l10.221,0.025V251.845z
	 M260.158,223.953l-10.221-0.053v18.405l10.221,0.025V223.953z M281.48,301.219l-11.806-0.028v19.295h11.806V301.219z
	 M281.48,276.558l-11.806-0.028v15.146l11.806,0.029V276.558z M281.48,251.896l-11.806-0.028v15.146l11.806,0.029V251.896z
	 M281.48,224.066l-11.806-0.062v18.348l11.806,0.029V224.066z M302.803,301.271l-11.807-0.028v19.243h11.807V301.271z
	 M302.803,276.609l-11.807-0.028v15.146l11.807,0.028V276.609z M302.803,251.948l-11.807-0.028v15.146l11.807,0.029V251.948z
	 M302.803,224.18l-11.807-0.063v18.287l11.807,0.029V224.18z M324.125,301.322l-11.807-0.028v19.191h11.807V301.322z
	 M324.125,276.661l-11.807-0.028v15.146l11.807,0.027V276.661z M324.125,252l-11.807-0.028v15.146l11.807,0.027V252z
	 M324.125,224.293l-11.807-0.063v18.227l11.807,0.027V224.293z M345.448,301.373l-11.807-0.027v19.14h11.807V301.373z
	 M345.448,276.712l-11.807-0.027v15.146l11.807,0.027V276.712z M345.448,252.052l-11.807-0.028v15.146l11.807,0.027V252.052z
	 M345.448,224.407l-11.807-0.063v18.165l11.807,0.027V224.407z M366.77,301.426l-11.806-0.028v19.088h11.806V301.426z
	 M366.77,276.765l-11.806-0.028v15.146l11.806,0.027V276.765z M366.77,252.104l-11.806-0.028v15.146l11.806,0.027V252.104z
	 M366.77,224.52l-11.806-0.062v18.103l11.806,0.027V224.52z M388.093,301.478l-11.807-0.028v19.036h11.807V301.478z
	 M388.093,276.816l-11.807-0.028v15.146l11.807,0.028V276.816z M388.093,252.155l-11.807-0.028v15.146l11.807,0.028V252.155z
	 M388.093,224.633l-11.807-0.063v18.042l11.807,0.027V224.633z M409.415,301.529l-11.807-0.029v18.985h11.807V301.529z
	 M409.415,276.868l-11.807-0.029v15.146l11.807,0.029V276.868z M409.415,252.207l-11.807-0.028v15.146l11.807,0.029V252.207z
	 M409.415,224.747l-11.807-0.063v17.979l11.807,0.029V224.747z M430.738,301.581l-11.808-0.029v18.934h11.808V301.581z
	 M430.738,276.92l-11.808-0.029v15.146l11.808,0.029V276.92z M430.738,252.259l-11.808-0.029v15.146l11.808,0.029V252.259z
	 M430.738,224.86l-11.808-0.063v17.917l11.808,0.029V224.86z M452.06,301.633l-11.806-0.029v18.882h11.806V301.633z M452.06,276.972
	l-11.806-0.029v15.146l11.806,0.029V276.972z M452.06,252.311l-11.806-0.029v15.146l11.806,0.029V252.311z M452.06,224.974
	l-11.806-0.063v17.855l11.806,0.029V224.974z M473.382,301.685l-11.807-0.029v18.83h11.807V301.685z M473.382,277.023l-11.807-0.029
	v15.146l11.807,0.028V277.023z M473.382,252.362l-11.807-0.029v15.146l11.807,0.029V252.362z M473.382,225.086l-11.807-0.062v17.794
	l11.807,0.029V225.086z M494.703,301.735l-11.806-0.028v18.778h11.806V301.735z M494.703,277.075l-11.806-0.029v15.146l11.806,0.028
	V277.075z M494.703,252.414l-11.806-0.029v15.146l11.806,0.028V252.414z M494.703,225.2l-11.806-0.063v17.733l11.806,0.028V225.2z
	 M516.025,301.787l-11.807-0.028v18.727h11.807V301.787z M516.025,277.126l-11.807-0.028v15.146l11.807,0.028V277.126z
	 M516.025,252.465l-11.807-0.028v15.146l11.807,0.028V252.465z M516.025,225.314l-11.807-0.063v17.671l11.807,0.028V225.314z
	 M537.347,301.839l-11.806-0.028v18.675h11.806V301.839z M537.347,277.178l-11.806-0.028v15.146l11.806,0.029V277.178z
	 M537.347,252.517l-11.806-0.028v15.146l11.806,0.029V252.517z M537.347,225.427l-11.806-0.063v17.609l11.806,0.028V225.427z
	 M558.669,301.891l-11.806-0.028v18.623h11.806V301.891z M558.669,277.229l-11.806-0.028v15.146l11.806,0.029V277.229z
	 M558.669,252.568l-11.806-0.028v15.146l11.806,0.029V252.568z M558.669,225.54l-11.806-0.062v17.546l11.806,0.029V225.54z
	 M579.991,301.942l-11.807-0.029v18.572h8.073c1.272-0.27,2.511-0.549,3.733-0.832V301.942z M579.991,277.281l-11.807-0.029v15.146
	l11.807,0.029V277.281z M579.991,252.62l-11.807-0.029v15.146l11.807,0.029V252.62z M579.991,225.653l-11.807-0.063v17.486
	l11.807,0.029V225.653z M601.313,301.994l-11.806-0.029v15.21c4.287-1.252,8.215-2.59,11.806-3.993V301.994z M601.313,277.333
	l-11.806-0.029v15.146l11.806,0.029V277.333z M601.313,252.672l-11.806-0.029v15.146l11.806,0.029V252.672z M601.313,225.767
	l-11.806-0.063v17.424l11.806,0.029V225.767z M622.219,302.045l-11.391-0.027v6.935
	C615.266,306.712,619.024,304.382,622.219,302.045z M622.635,277.385l-11.807-0.028v15.146l11.807,0.028V277.385z M622.635,252.724
	l-11.807-0.028v15.146l11.807,0.028V252.724z M622.635,227.492c-6.414-1.862-11.807-1.675-11.807-1.675v17.363l11.807,0.028V227.492
	z M639.956,277.427l-7.806-0.019v15.146h0.29C638.13,285.645,639.587,279.768,639.956,277.427z M643.534,252.774l-11.384-0.027
	v15.146l10.16,0.023C643.535,262.106,643.873,257.093,643.534,252.774z M641.371,243.254c-2.111-5.169-5.477-8.81-9.221-11.371
	v11.35L641.371,243.254z M651.069,191.434c16.085-3.217,32.272-8.88,42.193-18.801c0,0,41.484-21.806,46.804-38.825l-19.146-3.191
	c0,0-14.493,33.64-27.657,42.017c0,0-19.318,10.672-42.25,17.256c-9.622,1.924-16.376,2.953-28.283,3.524
	c-5.586-0.363-15.724,0.569-21.475-1.102c0,0-9.526-2.413-27.426-2.422c-110.144-9.383-333.407-1.058-333.407-1.058
	c-49.084,9.367-84.594-4.198-101.75-14.775c-2.053-2.031-3.831-2.862-5.454-3.578c1.522,1.064,3.339,2.274,5.454,3.578
	c37.179,36.791,102.52,17.724,102.52,17.724c17.688,0.327,249.131,0.475,331.335,0.518c10.503,0.895,20,1.955,28.194,3.205
	c0,0,7.111,0.281,17.578-0.22C630.008,196.042,641.177,194.275,651.069,191.434z M755.511,312.621c0-5.288-4.287-9.573-9.574-9.573
	h-42.298c-5.286,0-9.573,4.285-9.573,9.573v38.291c0,5.287,4.287,9.573,9.573,9.573h45.47c5.287,0,6.402-4.286,6.402-9.573V312.621z
	 M792.611,199.701c0,0,7.979-43.479-38.292-33.507l-69.274,36.674c0,0-40.42,13.985-10.636,46.428c0,0-0.532,25.529,56.907,7.445
	C723.189,257.534,812.625,247.97,792.611,199.701z M146.566,113.571c-20.617-14.273,50.749-66.607,50.749-66.607
	c-45.991,6.343-57.092,66.607-57.092,66.607 M592.203,46.964c0,0-174.453-1.713-229.955,77.708
	C362.248,124.672,419.34,54.893,592.203,46.964z M370.178,46.964C143.395,37.449,187.8,124.672,187.8,124.672
	C167.183,34.276,370.178,46.964,370.178,46.964z M645.64,72.338c-70.263-22.203-113.701,52.334-113.701,52.334
	C589.037,51.378,645.64,72.338,645.64,72.338z M118.967,212.859c-94.103-88.194-69.783,8.486-69.783,8.486
	C36.496,147.36,118.967,212.859,118.967,212.859z M82.664,230.833c0,0,47.934,57.15,68.022-9.488
	C150.686,221.345,129.892,277.693,82.664,230.833z M781.221,221.345c0,0,24.32-96.68-69.783-8.486
	C711.438,212.859,793.908,147.36,781.221,221.345z M679.719,221.345c20.089,66.638,68.023,9.488,68.023,9.488
	C700.514,277.693,679.719,221.345,679.719,221.345z M118.967,324.935c-27.49-17.974-42.292,24.318-42.292,24.318
	C97.82,312.247,118.967,324.935,118.967,324.935z M747.742,349.253c0,0-14.803-42.292-42.293-24.318
	C705.449,324.935,726.596,312.247,747.742,349.253z"/>
</svg>
