<?xml version="1.0" encoding="utf-8"?>
<!-- Generator: Adobe Illustrator 23.0.1, SVG Export Plug-In . SVG Version: 6.00 Build 0)  -->
<svg version="1.1" id="Layer_1" xmlns="http://www.w3.org/2000/svg" xmlns:xlink="http://www.w3.org/1999/xlink" x="0px" y="0px"
	 viewBox="0 0 1500 1500" style="enable-background:new 0 0 1500 1500;" xml:space="preserve">
<path d="M1281.3,700c-31.3-6.6-62.9-13.3-94.5-19.9c-0.4,1.1-0.8,2.2-1.3,3.3c13.5,14.7,29.7,25.8,48.4,33.4
	c19.1,7.8,39,9.8,61.7,7.2c3.2,19.8,7.6,38.9,9,58.3c1.4,18.9-0.2,38.1-0.8,57.1c-0.1,2.3-1.5,5.9-3.3,6.8
	c-14.7,6.9-29.5,13.2-45.4,20.2c-2.1-39.4-17.5-71.3-48.4-94.7c-22.7-17.2-48.7-25-77.2-23.7c-55.6,2.4-111.2,46.5-114.4,118.6
	c-165.8,0-331.6,0-498.4,0c-2.2-40.8-18.8-74.3-52.9-97.9c-22.9-15.9-48.7-22.6-76.5-20.4c-55.7,4.4-106.8,48.2-110.5,117.8
	c-2.7-1.1-5.2-1.9-7.5-3c-17.8-8.3-35.3-17-53.3-24.8c-7-3-10.3-7.4-12-14.6c-12.7-53.6-4.8-104.2,25.7-149.7
	c35.8-53.6,84.9-92.8,144.8-115.9c23.8-9.2,50.6-12,76.4-14.6c117.6-11.8,235.6-12.3,353.7-8.8c11.2,0.3,21.2,3.9,30.5,10.5
	c44.3,32,88.6,64,133.2,95.6c4.2,2.9,10.1,4.9,15.2,4.8c61.2-1.2,122.2-0.7,182.9,8.5c29.4,4.5,58.5,10.5,85.5,23.8
	C1263.6,683.3,1274.5,690,1281.3,700z M685.1,550c-2.1-0.2-3.8-0.6-5.4-0.6c-52.6,1.5-105.3,2.9-157.9,4.7c-3,0.1-6.9,3.2-8.6,6.1
	c-16,27.3-31.6,54.8-47.3,82.3c-1.2,2.1-2,4.3-3.3,7.1c74.7,0,148.4,0,222.5,0C685.1,616.2,685.1,583.3,685.1,550z M709.2,549.9
	c-0.5,1.7-0.8,2.5-0.8,3.3c0,30.3,0.2,60.5,0,90.8c0,6.6,3.9,6.1,8.2,6.1c75.9,0,151.8,0,227.8-0.1c2,0,3.9-0.4,7.1-0.8
	c-1.9-1.7-2.7-2.6-3.5-3.2c-40.2-29-80.2-58.3-120.9-86.6c-7.4-5.1-17.5-7.3-26.7-8.4c-13-1.6-26.3-1-39.5-1.1
	C743.8,549.8,726.8,549.9,709.2,549.9z M270.6,649.6c2.1,0.2,3.3,0.5,4.6,0.5c51.5,0,103,0.1,154.6-0.2c3,0,7.1-2.9,8.7-5.6
	c16.1-27.2,31.8-54.7,47.6-82.1c0.9-1.6,1.5-3.4,2-4.4C401.6,554.3,329.1,584.1,270.6,649.6z M555.6,703.1
	c-1.3-8.2-5.8-12.1-12.5-12.2c-18.5-0.4-37-0.4-55.5,0c-6.9,0.2-11.8,3.9-12.4,12.2C502,703.1,528.2,703.1,555.6,703.1z M812.9,703
	c-2.2-7.9-6.5-12.1-13.4-12.2c-18.2-0.3-36.4-0.3-54.6,0c-7.1,0.1-11.9,3.8-13,12.1C758.8,703,785.2,703,812.9,703z"/>
<path d="M1135.9,968.9c-55.9,0.3-102-45.2-102.3-101.2c-0.3-56,45.2-102.1,101.1-102.5c56.4-0.4,102.3,45.1,102.5,101.7
	C1237.4,923,1192.2,968.5,1135.9,968.9z M1100.5,797.1c8.6,15,16,27.9,23.5,40.7c0.9,1.5,2.7,2.4,4.1,3.6c0.9-1.2,2.5-2.4,2.5-3.7
	c0.2-15.6,0.1-31.2,0.1-48.7C1120.2,791.8,1111,794.3,1100.5,797.1z M1129.8,945c2.9-20.1,1.5-48.2-3-53.2
	c-8.6,14.9-17,29.4-26.2,45.5C1111.1,940,1120.1,942.4,1129.8,945z M1069.1,823.3c16.1,9.3,29.6,17.2,43.1,24.8
	c1.1,0.6,3.1,0.3,4.4-0.3c0.5-0.3,0.7-2.7,0.2-3.6c-7.8-13.7-15.7-27.3-24.8-43C1083.9,809,1077,815.6,1069.1,823.3z M1201.6,910.8
	c-16-9.2-29.2-17-42.5-24.5c-1.2-0.7-3-0.2-4.5-0.3c0,1.5-0.7,3.4,0,4.5c7.7,13.6,15.5,27,24.8,43
	C1187,925.6,1193.8,918.7,1201.6,910.8z M1065.3,832.1c-2.8,10.9-5.1,20-7.7,30.3c17.2,0,32.2,0.1,47.3-0.1c1.6,0,3.1-1.5,4.7-2.3
	c-0.8-1.3-1.4-3.1-2.6-3.8C1093.8,848.4,1080.5,840.8,1065.3,832.1z M1092,933c9-15.7,16.8-29.1,24.5-42.7c0.6-1.1,0.4-3.1-0.2-4.3
	c-0.3-0.5-2.7-0.7-3.6-0.2c-13.7,7.8-27.4,15.7-42.9,24.8C1077.5,918.5,1084.3,925.3,1092,933z M1205.5,832.1
	c-16.5,9.6-30.9,18-45.3,26.4c0.4,1,0.8,2,1.2,3c16.7,0,33.4,0,51.9,0C1210.8,851.8,1208.3,842.7,1205.5,832.1z M1179.3,800.9
	c-9.3,16-17.1,29.4-24.8,42.9c-0.6,1.1-0.4,3.2,0.2,4.4c0.2,0.5,2.7,0.7,3.6,0.2c13.7-7.8,27.3-15.7,43.5-25
	C1193.8,815.4,1187.1,808.6,1179.3,800.9z M1065.5,902.1c14.9-8.6,28-16,41-23.7c1.4-0.8,2-2.9,3-4.3c-1.1-0.7-2.1-2-3.2-2
	c-15.8-0.1-31.6-0.1-49-0.1C1060.2,882.6,1062.6,891.6,1065.5,902.1z M1213.4,873.1c-18.9,0-35.5,0-52.2,0c-0.3,0.9-0.6,1.9-0.9,2.8
	c14.5,8.4,29,16.9,45.1,26.2C1208.2,891.9,1210.8,882.7,1213.4,873.1z M1141.4,841.3c1,0.2,2.1,0.5,3.1,0.7
	c8.4-14.5,16.8-29,26-45.1c-10.7-2.8-19.9-5.1-29.2-7.5C1141.4,807.9,1141.4,824.6,1141.4,841.3z M1144.3,892
	c-1.3,0.3-2.5,0.5-3.8,0.8c-0.6,16.8-0.1,33.7-0.2,52.4c10.6-2.8,19.8-5.3,30.2-8.1C1161.1,921,1152.7,906.5,1144.3,892z"/>
<path d="M498.5,867.2c0.1,56.1-45.3,101.5-101.6,101.7c-55.9,0.2-101.9-45.5-102-101.4c-0.1-56.4,45.8-102.4,102.1-102.3
	C453.1,765.3,498.5,810.9,498.5,867.2z M361.9,797.2c8.6,14.9,15.9,27.8,23.5,40.5c0.9,1.6,3.2,2.3,4.8,3.5c0.7-2,1.9-3.9,1.9-5.9
	c0.2-10.9,0.2-21.8,0.1-32.8c0-4-0.4-8-0.7-13.5C381.2,791.8,372.2,794.3,361.9,797.2z M391.2,945.1c2.8-22.8,1.4-48.6-3.3-53
	c-8.4,14.6-16.8,29-26.1,45.1C372.2,939.9,381.4,942.4,391.2,945.1z M318.6,862.4c17.4,0,33,0.1,48.6-0.1c1.2,0,2.5-1.6,3.7-2.4
	c-0.9-1.3-1.5-3-2.7-3.7c-13.2-7.7-26.5-15.3-41.3-23.9C324,842.6,321.5,851.8,318.6,862.4z M330.4,823.3c16,9.3,29.5,17.1,43,24.7
	c1.1,0.6,3,0.1,4.5,0.1c0-1.5,0.5-3.3-0.2-4.5c-7.6-13.5-15.4-26.9-24.5-42.6C345.2,808.8,338.4,815.5,330.4,823.3z M440.4,801.2
	c-9,15.5-16.8,28.9-24.4,42.5c-0.7,1.2-0.2,3-0.2,4.5c1.5,0,3.3,0.5,4.5-0.1c13.5-7.6,26.9-15.4,42.9-24.6
	C455.1,815.5,448.2,808.9,440.4,801.2z M440.1,932.5c7.7-7.6,14.6-14.4,22.4-22c-15.4-8.9-28.7-16.7-42-24.2c-1.2-0.7-3-0.3-4.6-0.4
	c-0.1,1.5-0.8,3.4-0.1,4.5C423.4,903.9,431.3,917.3,440.1,932.5z M353,933.6c9.4-16.3,17.2-29.7,24.9-43.3c0.6-1.1,0.3-3.1-0.3-4.3
	c-0.3-0.6-2.7-0.6-3.7-0.1c-13.7,7.8-27.3,15.7-42.3,24.4C339,918.4,345.5,925.5,353,933.6z M475.1,862.4c-3-10.8-5.5-20-8.3-30.2
	c-14.9,8.6-28.3,16.2-41.5,24c-1.2,0.7-1.8,2.5-2.6,3.8c1.6,0.8,3.1,2.3,4.7,2.3C442.4,862.5,457.5,862.4,475.1,862.4z M318.5,871.9
	c3,10.8,5.7,20,8.5,30c14.8-8.5,27.6-15.8,40.4-23.3c1.5-0.9,2.4-2.7,3.5-4.2c-1.2-0.8-2.5-2.4-3.7-2.4
	C351.6,871.9,336,871.9,318.5,871.9z M466.8,902.1c2.8-10.4,5.3-19.6,8.1-30.2c-18.8-0.1-35.6-0.3-52.4,0.1
	c-0.3,1.3-0.5,2.6-0.8,3.9C436.2,884.4,450.7,892.8,466.8,902.1z M431.8,937.1c-9.4-16.1-17.8-30.6-26.2-45
	c-0.9,0.3-1.8,0.5-2.7,0.8c0,16.8,0,33.7,0,52.1C412.3,942.4,421.4,939.9,431.8,937.1z M405.4,842.7c8.7-15,17-29.5,26.3-45.6
	c-10.6-2.8-19.7-5.2-29-7.7C400,805.9,401.1,837.1,405.4,842.7z"/>
</svg>
